<svg id="Capa_1" enable-background="new 0 0 512 512" height="512" viewBox="0 0 512 512" width="512" xmlns="http://www.w3.org/2000/svg"><g><g><path d="m198.443 241.837c-9.14-9.141-15.797-19.957-19.785-32.149-1.288-3.937-5.521-6.083-9.46-4.796-3.937 1.288-6.084 5.523-4.796 9.46 4.728 14.453 12.613 27.269 23.436 38.092 18.792 18.787 43.477 28.18 68.162 28.18s49.371-9.394 68.165-28.182c37.574-37.585 37.574-98.74-.001-136.327-37.585-37.575-98.74-37.574-136.326.001-16.275 16.274-26.196 37.862-27.936 60.786-.313 4.13 2.781 7.732 6.911 8.046 4.128.311 7.732-2.781 8.046-6.911 1.468-19.35 9.844-37.574 23.584-51.313 31.737-31.729 83.377-31.729 115.113-.001 31.728 31.737 31.728 83.377.001 115.113-31.736 31.728-83.377 31.729-115.114.001z"/><path d="m256 0c-101.612 0-184.28 82.667-184.28 184.28 0 41.594 11.839 86.963 35.188 134.847 1.815 3.723 6.305 5.27 10.028 3.454 3.723-1.815 5.27-6.305 3.454-10.028-22.341-45.819-33.67-88.976-33.67-128.273 0-93.342 75.939-169.28 169.28-169.28s169.28 75.938 169.28 169.28c0 36.747-10.007 73.767-24.665 108.292l-13.204-13.204c3.336-6.603 2.26-14.883-3.249-20.392l-14.376-14.376c14.479-27.163 18.811-58.893 11.484-89.962-.951-4.032-4.987-6.528-9.021-5.578-4.031.951-6.529 4.99-5.578 9.021 9.123 38.686-2.187 78.538-30.253 106.605-22.174 22.173-51.291 33.259-80.417 33.256-29.12-.003-58.249-11.088-80.417-33.256-44.33-44.34-44.33-116.485 0-160.824 44.342-44.342 116.492-44.341 160.834 0 7.113 7.113 13.244 15.109 18.222 23.766 2.065 3.591 6.65 4.828 10.24 2.763 3.591-2.064 4.828-6.649 2.763-10.24-5.635-9.8-12.572-18.849-20.618-26.895-50.19-50.19-131.856-50.19-182.047 0-50.176 50.187-50.176 131.848 0 182.036 25.095 25.095 58.059 37.643 91.023 37.643 20.747 0 41.493-4.975 60.278-14.916l14.42 14.42c3.431 3.432 7.938 5.147 12.446 5.147 2.73 0 5.455-.64 7.946-1.898l25.348 25.348c-12.257 21.482-25.468 41.164-37.927 58.158-34.659 47.275-69.718 82.588-82.51 94.962-17.422-16.865-76.174-76.341-119.406-151.199-2.072-3.586-6.658-4.816-10.246-2.744-3.587 2.071-4.815 6.659-2.744 10.246 52.195 90.377 126.588 158.893 127.333 159.574 1.433 1.31 3.247 1.965 5.061 1.965s3.628-.655 5.061-1.965c.447-.409 45.252-41.604 89.375-101.737 25.98-35.407 46.698-70.412 61.58-104.044 18.754-42.384 28.263-82.749 28.263-119.975.001-101.61-82.667-184.277-184.279-184.277zm87.144 302.595c-.402 0-1.176-.099-1.839-.762l-11.842-11.842c6.177-4.296 12.058-9.195 17.561-14.698 5.474-5.474 10.371-11.353 14.698-17.544l11.834 11.834c.663.663.762 1.437.762 1.839 0 .403-.099 1.177-.762 1.84l-28.572 28.572c-.664.663-1.438.761-1.84.761zm19.178 3.113 15.108-15.108 16.626 16.626c-3.217 6.837-6.593 13.555-10.084 20.132z"/></g></g></svg>